# xmcd
#
# Track frame offsets:
#	150
#	29177
#	66107
#	82603
#	117883
#	153704
#	182239
#	218562
#	247283
#	251732
#
# Disc length: 3741 seconds
#
# Revision: 0
# Processed by: cddbd v1.5.2PL0 Copyright (c) Steve Scherf et al.
# Submitted via: audiograbber 1.83.01
#
DISCID=8e0e9b0a
DTITLE=Grateful Dead - 92-03-11 Nassau Veterans Memorial Coliseum, Uniondale NY
DYEAR=1900
DGENRE=
TTITLE0=Cold Rain and Snow
TTITLE1=Wang Dang Doodle
TTITLE2=Dire Wolf
TTITLE3=Queen Jane Approximately
TTITLE4=Althea
TTITLE5=It's All Over Now
TTITLE6=So Many Roads
TTITLE7=Picasso Moon
TTITLE8=Tuning
TTITLE9=Knockin' On Heaven's Door
EXTD=
EXTT0=
EXTT1=
EXTT2=
EXTT3=
EXTT4=
EXTT5=
EXTT6=
EXTT7=
EXTT8=
EXTT9=
PLAYORDER=
